<?xml version="1.0" standalone="no"?>
<!DOCTYPE svg PUBLIC "-//W3C//DTD SVG 20010904//EN"
 "http://www.w3.org/TR/2001/REC-SVG-20010904/DTD/svg10.dtd">
<svg version="1.0" xmlns="http://www.w3.org/2000/svg"
 width="300.000000pt" height="300.000000pt" viewBox="0 0 300.000000 300.000000"
 preserveAspectRatio="xMidYMid meet">
<metadata>
Created by potrace 1.10, written by Peter Selinger 2001-2011
</metadata>
<g transform="translate(0.000000,300.000000) scale(0.100000,-0.100000)"
fill="#000000" stroke="none">
<path d="M824 2976 c-42 -42 -71 -119 -179 -476 -13 -41 -60 -190 -105 -330
-125 -389 -221 -709 -239 -800 -5 -25 -18 -88 -29 -140 -20 -95 -23 -108 -43
-233 -6 -37 -9 -126 -7 -198 l3 -131 33 -29 c18 -16 42 -29 53 -29 33 0 83 36
111 77 23 36 138 266 138 277 0 3 32 71 70 152 39 80 70 148 70 149 0 4 72
159 137 295 110 229 271 496 408 675 96 126 273 299 293 286 18 -11 -20 -167
-113 -466 -94 -300 -120 -416 -132 -580 -6 -89 8 -144 49 -184 59 -58 151 -33
238 65 55 61 132 162 130 170 -1 4 3 10 8 13 5 3 47 53 92 111 105 133 228
260 251 260 21 0 32 -50 80 -360 29 -188 91 -299 196 -353 62 -33 157 -17 221
36 129 108 392 451 392 512 0 31 -46 75 -80 75 -35 0 -74 -37 -157 -150 -34
-47 -66 -89 -70 -95 -5 -5 -26 -35 -48 -65 -78 -108 -124 -149 -173 -154 -65
-7 -98 81 -142 381 -16 114 -38 222 -48 246 -43 96 -135 137 -224 99 -79 -35
-235 -200 -431 -459 -76 -101 -103 -130 -113 -120 -15 14 60 317 142 572 73
226 114 400 114 482 0 83 -8 111 -45 147 -68 69 -162 38 -322 -107 -83 -75
-203 -205 -256 -278 -17 -24 -34 -46 -37 -49 -20 -17 -234 -352 -235 -370 -1
-3 -11 -21 -23 -40 -44 -69 -167 -319 -272 -555 -66 -147 -101 -217 -106 -212
-24 24 85 440 236 897 97 295 169 520 215 675 14 50 37 121 51 158 30 84 30
102 2 144 -27 39 -71 43 -104 9z m86 -35 c8 -15 5 -32 -9 -68 -10 -26 -46
-138 -79 -248 -34 -110 -110 -351 -171 -535 -189 -574 -243 -779 -286 -1065
-17 -114 -19 -155 -7 -155 18 0 40 39 101 179 121 276 282 617 357 755 196
360 393 622 592 787 112 93 151 113 200 105 56 -9 67 -26 70 -119 4 -95 -21
-206 -113 -502 -83 -265 -136 -478 -142 -572 -5 -74 -4 -83 12 -90 22 -8 43
14 195 212 146 190 167 216 272 322 115 117 169 137 239 90 53 -35 67 -77 99
-298 42 -286 61 -353 117 -405 52 -48 132 -20 209 75 27 32 98 127 158 210
111 154 138 177 175 154 23 -15 16 -39 -34 -114 -111 -169 -304 -387 -371
-420 -110 -53 -218 9 -277 159 -10 24 -33 141 -53 260 -37 232 -47 274 -70
297 -13 13 -20 13 -53 -4 -63 -33 -171 -156 -415 -475 -118 -154 -191 -201
-255 -166 -30 15 -45 91 -38 188 9 118 43 262 132 552 41 135 84 281 95 325
22 83 38 225 26 225 -55 0 -280 -216 -415 -398 -190 -257 -314 -492 -648
-1226 -114 -251 -161 -326 -208 -326 -44 0 -55 32 -55 165 0 211 67 543 189
937 93 298 343 1083 361 1131 12 31 29 61 38 67 27 15 50 12 62 -9z"/>
<path d="M1125 566 c-14 -14 -25 -35 -25 -47 0 -12 -6 -30 -14 -38 -20 -24
-36 -79 -36 -128 0 -27 -4 -42 -10 -38 -5 3 -10 16 -10 27 0 12 -7 30 -17 40
-15 17 -15 19 0 36 22 24 21 45 -3 67 -23 21 -85 15 -132 -13 -21 -12 -31 -14
-36 -5 -15 25 -61 34 -96 19 -19 -8 -37 -19 -40 -25 -5 -8 -16 -5 -36 9 -36
26 -55 25 -74 -2 l-16 -22 -41 23 c-65 37 -150 27 -167 -19 -4 -10 -5 -61 -2
-113 5 -86 7 -97 30 -116 42 -35 97 -23 149 33 l24 25 16 -32 c9 -18 25 -33
37 -35 30 -4 64 42 64 84 0 37 10 43 30 19 10 -13 10 -19 -5 -35 -21 -23 -15
-43 19 -66 30 -19 62 -14 96 16 13 11 24 20 25 20 0 0 16 -11 35 -25 41 -30
88 -32 123 -5 31 24 45 25 69 3 17 -15 20 -15 41 5 29 27 39 27 62 2 24 -27
43 -25 75 5 l26 25 34 -30 c81 -72 180 -4 180 125 0 127 -102 186 -179 104
-11 -12 -22 -21 -24 -18 -21 28 -37 62 -37 77 0 24 -36 62 -60 62 -10 0 -25 3
-34 6 -9 3 -26 -5 -41 -20z m60 -26 c5 -8 11 -7 21 1 17 14 29 6 21 -16 -7
-17 -34 -20 -57 -5 -9 5 -19 5 -27 -2 -19 -15 -29 -2 -13 17 14 17 46 20 55 5z
m63 -175 c-3 -64 -8 -119 -12 -122 -12 -12 -45 30 -73 93 -15 35 -30 64 -33
64 -3 0 -6 -20 -6 -44 -2 -64 -13 -116 -26 -116 -12 0 -7 198 6 218 14 22 44
-10 72 -77 36 -87 44 -94 44 -39 0 68 11 138 23 138 6 0 8 -41 5 -115z m-241
88 c3 -8 -13 -17 -41 -24 -42 -10 -46 -14 -46 -42 0 -29 1 -29 40 -24 22 3 42
1 45 -3 8 -12 -28 -30 -59 -30 -22 0 -26 -4 -26 -30 0 -27 3 -30 34 -30 18 0
39 7 46 15 16 19 30 19 30 0 0 -24 -45 -47 -86 -43 -52 4 -60 22 -48 108 5 39
6 74 2 76 -18 12 -5 23 35 32 51 12 69 11 74 -5z m-491 -8 c56 -39 52 -129 -7
-179 -33 -28 -80 -34 -97 -13 -14 17 -2 173 13 169 6 -1 10 -37 10 -82 0 -87
5 -93 48 -60 53 42 53 143 1 156 -25 6 -63 2 -98 -12 -14 -5 -17 -4 -12 5 19
31 107 41 142 16z m132 -97 c-2 -67 -7 -113 -13 -113 -6 0 -11 46 -13 113 -2
96 0 112 13 112 13 0 15 -16 13 -112z m180 93 c3 -10 -2 -12 -20 -8 -27 7 -68
-16 -68 -38 0 -7 19 -26 43 -42 23 -16 43 -38 45 -50 5 -33 -33 -65 -71 -61
-39 4 -42 22 -5 26 14 2 31 9 37 16 14 17 4 46 -16 46 -19 0 -63 45 -63 65 0
30 48 67 82 63 17 -2 34 -9 36 -17z m623 -12 c45 -63 7 -181 -60 -187 -59 -6
-90 46 -76 130 15 84 93 118 136 57z m-599 -71 c-5 -5 -16 0 -28 13 -19 21
-19 21 6 41 l25 20 3 -32 c2 -18 -1 -37 -6 -42z"/>
<path d="M1362 418 c-14 -14 -16 -116 -3 -136 15 -24 45 -9 65 32 26 52 13
110 -24 114 -14 2 -31 -3 -38 -10z"/>
<path d="M2222 486 c-26 -14 -54 -60 -95 -156 -24 -54 -26 -67 -16 -87 17 -32
46 -39 71 -16 28 24 98 177 98 212 0 15 -8 35 -17 44 -15 13 -22 13 -41 3z
m28 -35 c0 -30 -91 -212 -103 -208 -18 6 -16 14 37 125 47 99 66 122 66 83z"/>
<path d="M1771 464 c-12 -15 -21 -33 -21 -40 0 -24 -14 -15 -30 19 -19 42 -53
47 -75 13 -13 -20 -16 -44 -14 -110 4 -78 6 -87 33 -115 31 -32 54 -38 87 -21
13 7 25 7 38 1 14 -8 25 -6 45 10 24 19 28 20 50 6 21 -14 26 -14 45 0 23 16
71 11 71 -7 0 -21 49 -9 69 16 22 28 21 31 -16 80 -27 36 -29 58 -8 98 14 26
14 31 0 52 -16 25 -49 31 -74 15 -9 -6 -23 -5 -37 1 -18 9 -29 7 -49 -6 -24
-16 -28 -16 -44 -2 -25 23 -47 20 -70 -10z m48 -108 c-8 -69 -8 -90 1 -96 13
-8 6 -30 -10 -30 -4 0 -13 14 -19 31 l-11 32 -21 -27 c-24 -30 -64 -35 -77 -8
-24 45 -25 202 -2 202 5 0 12 -41 16 -90 3 -50 10 -93 14 -95 22 -14 80 93 80
147 0 9 3 24 6 33 6 14 9 14 20 3 11 -11 12 -30 3 -102z m206 104 c3 -5 -6
-28 -21 -50 l-27 -41 22 -46 c15 -31 26 -43 36 -39 10 4 15 -1 15 -15 0 -11
-7 -22 -15 -26 -17 -6 -39 16 -59 60 l-13 29 -27 -46 c-26 -45 -46 -59 -46
-33 0 6 11 32 25 56 31 54 31 62 -1 101 -21 24 -24 34 -15 43 10 9 18 5 39
-21 l27 -33 19 36 c20 36 30 42 41 25z m-137 -96 c1 -10 -4 -28 -12 -39 -14
-19 -15 -17 -16 23 0 31 4 42 13 40 6 -3 13 -13 15 -24z"/>
<path d="M2457 472 c-10 -10 -17 -26 -17 -35 0 -28 -18 -28 -32 -1 -7 15 -21
32 -31 38 -15 9 -23 6 -43 -17 -20 -24 -24 -39 -24 -93 0 -112 44 -174 112
-158 36 8 35 8 59 -1 8 -3 26 3 39 15 21 18 25 19 40 5 23 -21 43 -19 66 6 26
29 34 198 10 234 -19 29 -51 32 -78 8 -17 -15 -19 -15 -36 0 -24 22 -45 21
-65 -1z m46 -110 c-5 -58 -5 -95 1 -105 6 -9 7 -20 2 -24 -10 -11 -36 26 -36
51 0 17 -4 15 -21 -11 -25 -39 -60 -44 -83 -11 -18 26 -23 183 -6 193 12 7 17
-20 23 -108 3 -37 7 -71 11 -74 17 -17 75 77 76 124 0 38 19 78 31 66 8 -8 8
-39 2 -101z m105 -14 c-2 -67 -7 -113 -13 -113 -6 0 -11 46 -13 113 -2 96 0
112 13 112 13 0 15 -16 13 -112z"/>
</g>
</svg>
